<svg width="24" height="24" viewBox="0 0 24 24" fill="none" xmlns="http://www.w3.org/2000/svg">
<path fill-rule="evenodd" clip-rule="evenodd" d="M17.8725 16.8116C19.1999 15.2436 20.0002 13.2153 20.0002 11C20.0002 6.02944 15.9708 2 11.0002 2C6.02968 2 2.00024 6.02944 2.00024 11C2.00024 15.9706 6.02968 20 11.0002 20C13.2155 20 15.2439 19.1996 16.8119 17.8723L19.4699 20.5303C19.7628 20.8232 20.2377 20.8232 20.5306 20.5303C20.8235 20.2374 20.8235 19.7626 20.5306 19.4697L17.8725 16.8116ZM18.5002 11C18.5002 15.1421 15.1424 18.5 11.0002 18.5C6.85811 18.5 3.50024 15.1421 3.50024 11C3.50024 6.85786 6.85811 3.5 11.0002 3.5C15.1424 3.5 18.5002 6.85786 18.5002 11Z" fill="black"/>
</svg>
